<svg xmlns="http://www.w3.org/2000/svg" viewBox="0 0 727.29 208.81"><defs><style>.cls-1,.cls-2{fill:none;stroke:#000;stroke-miterlimit:10;}.cls-1{stroke-width:6px;}.cls-2{stroke-width:4px;}</style></defs><title>Fichier 1</title><g id="Calque_2" data-name="Calque 2"><g id="Calque_1-2" data-name="Calque 1"><path d="M8,169.41V192H0V134.35H22.38q10,0,15.6,4.83A16,16,0,0,1,43.63,152q0,8.39-5.52,12.92T22.3,169.41Zm0-6.22H22.38q6.42,0,9.83-2.87t3.42-8.3a10.57,10.57,0,0,0-3.42-8.25q-3.42-3.09-9.37-3.21H8Z"/><path d="M60.34,154.33a16.75,16.75,0,0,1,13.34-6q14.29,0,14.42,15.31V192H80.39V163.63q0-4.63-2.23-6.85t-6.82-2.21a11.51,11.51,0,0,0-6.58,1.9,13.12,13.12,0,0,0-4.42,5V192H52.63V131.19h7.71Z"/><path d="M97.6,170.16a24.3,24.3,0,0,1,2.6-11.32,18.8,18.8,0,0,1,7.25-7.75,20.57,20.57,0,0,1,10.61-2.73q9.21,0,14.9,6t5.69,16.1V171a24.4,24.4,0,0,1-2.53,11.21,18.52,18.52,0,0,1-7.21,7.74,20.71,20.71,0,0,1-10.77,2.77q-9.17,0-14.85-6.05t-5.69-16Zm7.75.87q0,7.13,3.48,11.43a12.19,12.19,0,0,0,18.65-.06q3.45-4.36,3.46-12.24,0-7-3.53-11.42a11.4,11.4,0,0,0-9.35-4.37,11.29,11.29,0,0,0-9.21,4.31Q105.35,163,105.35,171Z"/><path d="M158.77,138.78v10.37h8.42v5.66h-8.42v26.58a5.74,5.74,0,0,0,1.13,3.86,4.87,4.87,0,0,0,3.83,1.29,19.46,19.46,0,0,0,3.67-.48V192a23.36,23.36,0,0,1-5.92.79q-5.16,0-7.79-3t-2.63-8.43V154.81h-8.21v-5.66h8.21V138.78Z"/><path d="M173.32,170.16a24.3,24.3,0,0,1,2.6-11.32,18.8,18.8,0,0,1,7.25-7.75,20.57,20.57,0,0,1,10.61-2.73q9.21,0,14.9,6t5.69,16.1V171a24.4,24.4,0,0,1-2.53,11.21,18.52,18.52,0,0,1-7.21,7.74,20.71,20.71,0,0,1-10.77,2.77q-9.17,0-14.85-6.05t-5.69-16Zm7.75.87q0,7.13,3.48,11.43a12.19,12.19,0,0,0,18.65-.06q3.45-4.36,3.46-12.24,0-7-3.53-11.42a11.4,11.4,0,0,0-9.35-4.37,11.29,11.29,0,0,0-9.21,4.31Q181.08,163,181.07,171Z"/><path d="M222.2,170.2q0-10,4.87-15.93A15.93,15.93,0,0,1,240,148.36q8.25,0,12.88,5.54l.38-4.75h7v41.78q0,8.31-5.19,13.09t-13.94,4.79a24.2,24.2,0,0,1-9.54-2,16.29,16.29,0,0,1-7.13-5.42l4-4.39a15.36,15.36,0,0,0,12.13,5.82q5.63,0,8.77-3c2.1-2,3.15-4.83,3.15-8.47v-3.68q-4.64,5.07-12.63,5.07a15.69,15.69,0,0,1-12.81-6.05Q222.2,180.64,222.2,170.2ZM230,171c0,4.82,1,8.62,3.13,11.37a10.33,10.33,0,0,0,8.75,4.14,11.37,11.37,0,0,0,10.71-6.29V160.7a11.51,11.51,0,0,0-10.63-6.13,10.42,10.42,0,0,0-8.79,4.15Q230,162.88,230,171Z"/><path d="M293.71,155.72a23.67,23.67,0,0,0-3.79-.28q-7.59,0-10.3,6.13V192h-7.7V149.15h7.5l.12,4.94a12.15,12.15,0,0,1,10.75-5.73,8.27,8.27,0,0,1,3.42.55Z"/><path d="M327,192a15,15,0,0,1-1.08-4.51,17.65,17.65,0,0,1-12.84,5.3,16.4,16.4,0,0,1-10.93-3.58,11.35,11.35,0,0,1-4.28-9.08,11.92,11.92,0,0,1,5.36-10.39q5.35-3.69,15.06-3.7h7.51v-3.36a8,8,0,0,0-2.42-6.11q-2.41-2.28-7.13-2.28a11.63,11.63,0,0,0-6.91,2,5.76,5.76,0,0,0-2.8,4.79h-7.75a9.77,9.77,0,0,1,2.4-6.19,16.12,16.12,0,0,1,6.5-4.73,22.88,22.88,0,0,1,9-1.74q7.8,0,12.21,3.7a13,13,0,0,1,4.58,10.18V182a22.88,22.88,0,0,0,1.59,9.37V192Zm-12.79-5.58a14.2,14.2,0,0,0,6.88-1.78,11.14,11.14,0,0,0,4.71-4.63v-8.78h-6.05q-14.16,0-14.17,7.87a6.52,6.52,0,0,0,2.42,5.38A9.62,9.62,0,0,0,314.17,186.38Z"/><path d="M383.64,171q0,9.76-4.71,15.74a15.36,15.36,0,0,1-12.75,6q-8.21,0-12.92-4.95v20.62h-7.71V149.15h7l.38,4.75q4.71-5.55,13.09-5.54,8.12,0,12.85,5.81t4.73,16.19Zm-7.71-.83q0-7.24-3.25-11.44a10.68,10.68,0,0,0-8.92-4.19,11.44,11.44,0,0,0-10.5,5.89v20.46a11.48,11.48,0,0,0,10.59,5.85,10.62,10.62,0,0,0,8.81-4.17Q375.93,178.43,375.93,170.2Z"/><path d="M401.14,154.33a16.75,16.75,0,0,1,13.34-6q14.29,0,14.42,15.31V192h-7.71V163.63q0-4.63-2.23-6.85t-6.82-2.21a11.51,11.51,0,0,0-6.58,1.9,13.12,13.12,0,0,0-4.42,5V192h-7.71V131.19h7.71Z"/><path d="M466.69,180.6a5.3,5.3,0,0,0-2.35-4.61q-2.35-1.63-8.21-2.83a40.64,40.64,0,0,1-9.29-2.84,13.1,13.1,0,0,1-5.09-4,9.1,9.1,0,0,1-1.64-5.46,10.91,10.91,0,0,1,4.68-8.9q4.69-3.65,12-3.64,7.67,0,12.43,3.76a11.71,11.71,0,0,1,4.78,9.61h-7.76a6.49,6.49,0,0,0-2.68-5.18,10.42,10.42,0,0,0-6.77-2.18,11,11,0,0,0-6.59,1.74,5.4,5.4,0,0,0-2.37,4.55,4.39,4.39,0,0,0,2.2,4,28.64,28.64,0,0,0,8,2.57,43,43,0,0,1,9.36,2.93,13.49,13.49,0,0,1,5.31,4.09,9.66,9.66,0,0,1,1.73,5.84,10.79,10.79,0,0,1-4.83,9.2q-4.83,3.47-12.55,3.46a23.79,23.79,0,0,1-9.58-1.82,15.38,15.38,0,0,1-6.52-5.09,11.81,11.81,0,0,1-2.35-7.06h7.7a7.47,7.47,0,0,0,3.11,5.84,12.47,12.47,0,0,0,7.64,2.15,13,13,0,0,0,7-1.68A5.11,5.11,0,0,0,466.69,180.6Z"/><path d="M9.63,69.54v43.72H.08V5.9H38.6q17.64,0,27.85,8.55T76.66,38q0,15.1-9.82,23.33T38.37,69.54Zm0-7.67h29q13.9,0,21.21-6.28t7.3-17.5q0-11.16-7.26-17.76T39.23,13.57H9.63Z"/><path d="M95.3,10.43A5.75,5.75,0,0,1,97,6.22a6.26,6.26,0,0,1,4.66-1.72,6.38,6.38,0,0,1,4.7,1.72,5.67,5.67,0,0,1,1.75,4.21,5.54,5.54,0,0,1-1.75,4.18,6.45,6.45,0,0,1-4.7,1.69A6.32,6.32,0,0,1,97,14.61,5.62,5.62,0,0,1,95.3,10.43Zm11,102.83H96.93V33.48h9.32Z"/><path d="M164,114.74a37.88,37.88,0,0,1-19.38-5,34.84,34.84,0,0,1-13.47-14,41.64,41.64,0,0,1-4.82-20.09V72.49a45,45,0,0,1,4.7-20.72,36,36,0,0,1,13.09-14.49A33.47,33.47,0,0,1,162.33,32q15.3,0,24.27,9.92t9,27.1V74h-60v1.7q0,13.56,8.2,22.6a26.65,26.65,0,0,0,20.62,9,31.63,31.63,0,0,0,13.16-2.58A28.84,28.84,0,0,0,188,96.45l5.83,4.2Q183.53,114.74,164,114.74Zm-1.71-75.22a23.85,23.85,0,0,0-17.67,7.3q-7.18,7.31-8.74,19.62h50.41v-1q-.39-11.51-6.91-18.73T162.33,39.52Z"/><path d="M252.5,41a36.81,36.81,0,0,0-6.29-.52,23.48,23.48,0,0,0-14.71,4.61q-6,4.6-8.59,13.39v54.78h-9.24V33.48h9.09l.15,12.68Q230.29,32,246.6,32a16,16,0,0,1,6.14,1Z"/><path d="M306,41a37,37,0,0,0-6.29-.52A23.51,23.51,0,0,0,285,45.09q-6,4.6-8.58,13.39v54.78h-9.25V33.48h9.09l.16,12.68Q283.79,32,300.12,32a16,16,0,0,1,6.13,1Z"/><path d="M351.76,114.74a37.87,37.87,0,0,1-19.37-5,34.87,34.87,0,0,1-13.48-14,41.74,41.74,0,0,1-4.81-20.09V72.49a45,45,0,0,1,4.69-20.72,36.09,36.09,0,0,1,13.09-14.49A33.48,33.48,0,0,1,350.06,32q15.3,0,24.27,9.92t9,27.1V74h-60v1.7q0,13.56,8.19,22.6a26.66,26.66,0,0,0,20.62,9,31.71,31.71,0,0,0,13.17-2.58,28.93,28.93,0,0,0,10.37-8.26l5.82,4.2Q371.27,114.74,351.76,114.74Zm-1.7-75.22a23.85,23.85,0,0,0-17.67,7.3q-7.18,7.31-8.74,19.62h50.41v-1q-.39-11.51-6.92-18.73T350.06,39.52Z"/><path d="M393.4,32.22l-5.52-3.83q7-8.92,7.22-18.73V0h9.17V7.45Q404.27,22.86,393.4,32.22Z"/><path d="M465.08,93a12.39,12.39,0,0,0-5.55-10.55q-5.55-4-16.74-6.23t-17.36-5.16a22.91,22.91,0,0,1-9.16-7.12,17,17,0,0,1-3-10.17q0-9.45,8.31-15.6T442.87,32q14.06,0,22.56,6.6a20.79,20.79,0,0,1,8.51,17.22h-9.32q0-7-6.18-11.65t-15.57-4.65q-9.17,0-14.72,3.88T422.6,53.46a10.71,10.71,0,0,0,4.62,9.26q4.62,3.27,16.85,6t18.33,5.82A23.45,23.45,0,0,1,471.45,82a18.3,18.3,0,0,1,2.95,10.54q0,10.11-8.58,16.15t-22.41,6q-14.67,0-23.8-6.75t-9.13-17.07h9.32A15.18,15.18,0,0,0,426.68,103q6.31,4.3,16.73,4.31,9.7,0,15.69-4.05T465.08,93Z"/><rect class="cls-1" x="537.44" y="5.9" width="186.85" height="186.85" rx="23.33" ry="23.33"/><rect class="cls-2" x="551.73" y="20.19" width="158.27" height="158.27" rx="15.46" ry="15.46"/><circle class="cls-1" cx="630.87" cy="99.32" r="38.41"/><circle class="cls-2" cx="630.87" cy="99.32" r="51.45"/></g></g></svg>