<svg id="Calque_1" data-name="Calque 1" xmlns="http://www.w3.org/2000/svg" viewBox="0 0 1000 1000"><defs><style>.cls-1,.cls-2{fill:none;stroke:#000;stroke-miterlimit:10;}.cls-1{stroke-width:6px;}.cls-2{stroke-width:4px;}</style></defs><title>Plan de travail 1</title><path d="M145.86,565v22.55h-8V530h22.38q10,0,15.61,4.82a16,16,0,0,1,5.65,12.78q0,8.38-5.53,12.92T160.15,565Zm0-6.21h14.37q6.42,0,9.84-2.88t3.41-8.3a10.59,10.59,0,0,0-3.41-8.24q-3.42-3.09-9.38-3.21H145.86Z"/><path d="M198.2,549.93a16.71,16.71,0,0,1,13.33-6q14.29,0,14.42,15.31v28.29h-7.71V559.22q0-4.62-2.23-6.84t-6.81-2.22a11.62,11.62,0,0,0-6.59,1.9,13,13,0,0,0-4.41,5v30.5h-7.71V526.78h7.71Z"/><path d="M235.45,565.75a24.17,24.17,0,0,1,2.61-11.31,18.76,18.76,0,0,1,7.25-7.76,20.53,20.53,0,0,1,10.6-2.73q9.21,0,14.9,6t5.69,16.11v.51A24.44,24.44,0,0,1,274,577.84a18.5,18.5,0,0,1-7.21,7.73A20.76,20.76,0,0,1,256,588.34q-9.18,0-14.86-6.05t-5.69-16Zm7.75.87q0,7.13,3.48,11.44a12.19,12.19,0,0,0,18.65-.06q3.46-4.38,3.46-12.25,0-7-3.52-11.41a11.4,11.4,0,0,0-9.36-4.37,11.28,11.28,0,0,0-9.21,4.31Q243.21,558.59,243.2,566.62Z"/><path d="M296.63,534.38v10.36h8.42v5.66h-8.42V577a5.7,5.7,0,0,0,1.12,3.86q1.13,1.29,3.84,1.29a20,20,0,0,0,3.66-.47v5.9a23.72,23.72,0,0,1-5.91.78q-5.18,0-7.8-3T288.92,577V550.4h-8.21v-5.66h8.21V534.38Z"/><path d="M311.17,565.75a24.17,24.17,0,0,1,2.61-11.31,18.76,18.76,0,0,1,7.25-7.76,20.51,20.51,0,0,1,10.6-2.73q9.21,0,14.9,6t5.69,16.11v.51a24.44,24.44,0,0,1-2.52,11.22,18.5,18.5,0,0,1-7.21,7.73,20.76,20.76,0,0,1-10.77,2.77q-9.18,0-14.86-6.05t-5.69-16Zm7.75.87q0,7.13,3.48,11.44a12.19,12.19,0,0,0,18.65-.06q3.46-4.38,3.46-12.25,0-7-3.52-11.41a11.4,11.4,0,0,0-9.36-4.37,11.28,11.28,0,0,0-9.21,4.31Q318.92,558.59,318.92,566.62Z"/><path d="M360.05,565.79q0-10,4.88-15.92A15.9,15.9,0,0,1,377.85,544q8.25,0,12.87,5.54l.38-4.75h7v41.78q0,8.31-5.19,13.1T379,604.41a24.2,24.2,0,0,1-9.54-2,16.27,16.27,0,0,1-7.12-5.42l4-4.39a15.35,15.35,0,0,0,12.12,5.81c3.75,0,6.68-1,8.77-3s3.15-4.83,3.15-8.47v-3.68q-4.62,5.07-12.63,5.06A15.7,15.7,0,0,1,365,582.29Q360.06,576.23,360.05,565.79Zm7.75.83q0,7.25,3.13,11.38a10.35,10.35,0,0,0,8.75,4.13,11.37,11.37,0,0,0,10.71-6.29V556.29a11.52,11.52,0,0,0-10.63-6.13,10.43,10.43,0,0,0-8.79,4.16Q367.81,558.48,367.8,566.62Z"/><path d="M431.56,551.31a24.79,24.79,0,0,0-3.79-.28q-7.59,0-10.29,6.14v30.38h-7.71V544.74h7.5l.12,5A12.16,12.16,0,0,1,428.15,544a8.35,8.35,0,0,1,3.41.55Z"/><path d="M464.82,587.55a14.36,14.36,0,0,1-1.08-4.51,17.64,17.64,0,0,1-12.84,5.3A16.43,16.43,0,0,1,440,584.76a11.33,11.33,0,0,1-4.27-9.08A11.88,11.88,0,0,1,441,565.3q5.35-3.7,15.07-3.7h7.5v-3.37a8,8,0,0,0-2.42-6.11c-1.61-1.52-4-2.27-7.12-2.27a11.73,11.73,0,0,0-6.92,2,5.77,5.77,0,0,0-2.79,4.79h-7.75a9.78,9.78,0,0,1,2.39-6.19,16.35,16.35,0,0,1,6.5-4.73,22.93,22.93,0,0,1,9-1.74q7.79,0,12.21,3.7a13.05,13.05,0,0,1,4.58,10.19v19.7a23.11,23.11,0,0,0,1.58,9.38v.63ZM452,582a14.09,14.09,0,0,0,6.88-1.78,11,11,0,0,0,4.71-4.63v-8.78h-6q-14.18,0-14.17,7.87a6.48,6.48,0,0,0,2.42,5.38A9.56,9.56,0,0,0,452,582Z"/><path d="M521.49,566.62q0,9.78-4.7,15.75a15.39,15.39,0,0,1-12.76,6q-8.2,0-12.91-4.94V604h-7.71V544.74h7l.37,4.75q4.71-5.54,13.09-5.54,8.13,0,12.85,5.82T521.49,566Zm-7.7-.83q0-7.24-3.26-11.43a10.63,10.63,0,0,0-8.91-4.2,11.43,11.43,0,0,0-10.5,5.9v20.45a11.44,11.44,0,0,0,10.58,5.86,10.58,10.58,0,0,0,8.81-4.18Q513.78,574,513.79,565.79Z"/><path d="M539,549.93a16.71,16.71,0,0,1,13.33-6q14.29,0,14.42,15.31v28.29H559V559.22q0-4.62-2.23-6.84T550,550.16a11.62,11.62,0,0,0-6.59,1.9,13,13,0,0,0-4.41,5v30.5h-7.71V526.78H539Z"/><path d="M604.55,576.2a5.3,5.3,0,0,0-2.36-4.61c-1.57-1.1-4.3-2-8.21-2.83a40.1,40.1,0,0,1-9.29-2.85,13.06,13.06,0,0,1-5.08-4,9.1,9.1,0,0,1-1.65-5.46,10.92,10.92,0,0,1,4.69-8.9q4.68-3.65,12-3.64,7.67,0,12.44,3.76a11.72,11.72,0,0,1,4.77,9.61h-7.75a6.5,6.5,0,0,0-2.69-5.18,10.41,10.41,0,0,0-6.77-2.17,10.92,10.92,0,0,0-6.58,1.74,5.37,5.37,0,0,0-2.38,4.55,4.37,4.37,0,0,0,2.21,4q2.21,1.35,8,2.57a43.4,43.4,0,0,1,9.35,2.93,13.62,13.62,0,0,1,5.32,4.1,9.7,9.7,0,0,1,1.73,5.83,10.79,10.79,0,0,1-4.84,9.2q-4.83,3.47-12.54,3.46a23.67,23.67,0,0,1-9.59-1.82,15.5,15.5,0,0,1-6.52-5.08,11.83,11.83,0,0,1-2.35-7.06h7.71a7.46,7.46,0,0,0,3.1,5.83,12.48,12.48,0,0,0,7.65,2.16,12.93,12.93,0,0,0,7-1.68A5.13,5.13,0,0,0,604.55,576.2Z"/><path d="M147.49,465.13v43.73h-9.56V401.49h38.53q17.63,0,27.84,8.56t10.22,23.52q0,15.12-9.83,23.34t-28.46,8.22Zm0-7.67h29q13.9,0,21.2-6.28t7.3-17.5q0-11.15-7.26-17.76t-20.62-6.76H147.49Z"/><path d="M233.16,406a5.77,5.77,0,0,1,1.71-4.22,6.28,6.28,0,0,1,4.66-1.72,6.42,6.42,0,0,1,4.69,1.72A5.69,5.69,0,0,1,246,406a5.53,5.53,0,0,1-1.75,4.17,6.44,6.44,0,0,1-4.69,1.69,6.3,6.3,0,0,1-4.66-1.69A5.61,5.61,0,0,1,233.16,406Zm11,102.83h-9.32V429.07h9.32Z"/><path d="M301.89,510.33a38,38,0,0,1-19.38-5,34.87,34.87,0,0,1-13.47-14,41.75,41.75,0,0,1-4.82-20.09v-3.17a45,45,0,0,1,4.7-20.72A36,36,0,0,1,282,432.87a33.55,33.55,0,0,1,18.17-5.27q15.3,0,24.28,9.92t9,27.09v4.94h-60v1.7q0,13.58,8.19,22.6a26.67,26.67,0,0,0,20.62,9,31.55,31.55,0,0,0,13.17-2.59,29,29,0,0,0,10.37-8.25l5.82,4.2Q321.4,510.34,301.89,510.33Zm-1.71-75.21a23.81,23.81,0,0,0-17.67,7.3q-7.18,7.31-8.73,19.61h50.4v-1q-.39-11.49-6.91-18.73T300.18,435.12Z"/><path d="M390.36,436.59a37,37,0,0,0-6.29-.51,23.45,23.45,0,0,0-14.72,4.61q-6,4.6-8.58,13.38v54.79h-9.25V429.07h9.09l.16,12.69q7.37-14.16,23.69-14.16a16,16,0,0,1,6.13,1Z"/><path d="M443.87,436.59a36.92,36.92,0,0,0-6.29-.51,23.47,23.47,0,0,0-14.72,4.61q-6,4.6-8.58,13.38v54.79H405V429.07h9.08l.16,12.69Q421.66,427.6,438,427.6a16,16,0,0,1,6.14,1Z"/><path d="M489.62,510.33a38,38,0,0,1-19.38-5,34.89,34.89,0,0,1-13.48-14A41.74,41.74,0,0,1,452,471.25v-3.17a45,45,0,0,1,4.7-20.72,36,36,0,0,1,13.09-14.49,33.55,33.55,0,0,1,18.17-5.27q15.3,0,24.27,9.92t9,27.09v4.94h-60v1.7q0,13.58,8.2,22.6a26.66,26.66,0,0,0,20.62,9,31.47,31.47,0,0,0,13.16-2.59,28.92,28.92,0,0,0,10.37-8.25l5.83,4.2Q509.11,510.34,489.62,510.33Zm-1.71-75.21a23.81,23.81,0,0,0-17.67,7.3q-7.19,7.31-8.74,19.61h50.41v-1q-.39-11.49-6.91-18.73T487.91,435.12Z"/><path d="M531.25,427.82,525.73,424q7-8.91,7.23-18.73v-9.66h9.16V403Q542.12,418.46,531.25,427.82Z"/><path d="M602.94,488.58A12.37,12.37,0,0,0,597.38,478q-5.55-4-16.73-6.23t-17.36-5.16a22.93,22.93,0,0,1-9.17-7.11,17.15,17.15,0,0,1-3-10.18q0-9.44,8.31-15.6t21.28-6.15q14.07,0,22.57,6.6a20.77,20.77,0,0,1,8.5,17.21h-9.32q0-7-6.17-11.65t-15.58-4.64q-9.16,0-14.71,3.87t-5.56,10.07a10.69,10.69,0,0,0,4.62,9.25q4.62,3.29,16.86,6t18.33,5.82a23.52,23.52,0,0,1,9,7.45,18.41,18.41,0,0,1,3,10.55q0,10.1-8.59,16.15t-22.4,6q-14.68,0-23.81-6.74t-9.12-17.07h9.32a15.13,15.13,0,0,0,6.87,12.05q6.33,4.32,16.74,4.32,9.71,0,15.69-4.06T602.94,488.58Z"/><rect class="cls-1" x="675.3" y="401.49" width="186.85" height="186.85" rx="23.33" ry="23.33"/><rect class="cls-2" x="689.58" y="415.78" width="158.27" height="158.27" rx="15.46" ry="15.46"/><circle class="cls-1" cx="768.72" cy="494.92" r="38.41"/><circle class="cls-2" cx="768.72" cy="494.92" r="51.45"/></svg>